<svg width="32" height="32" viewBox="0 0 32 32" fill="none" xmlns="http://www.w3.org/2000/svg">
<path d="M16 9.33333V31M16 9.33333C16 9.33333 16 6.84537 16 6C16 4.15905 17.4924 2.66667 19.3333 2.66667C21.1743 2.66667 22.6667 4.15905 22.6667 6C22.6667 7.84095 21.1743 9.33333 19.3333 9.33333C18.3378 9.33333 16 9.33333 16 9.33333ZM16 9.33333C16 9.33333 16 6.10485 16 5.16667C16 2.86548 14.1345 1 11.8333 1C9.53215 1 7.66667 2.86548 7.66667 5.16667C7.66667 7.46785 9.53215 9.33333 11.8333 9.33333C13.1963 9.33333 16 9.33333 16 9.33333ZM4.33333 16H27.6667M4.33333 16C2.49238 16 1 14.5076 1 12.6667C1 10.8257 2.49238 9.33333 4.33333 9.33333H27.6667C29.5076 9.33333 31 10.8257 31 12.6667C31 14.5076 29.5076 16 27.6667 16M4.33333 16L4.33333 27.6667C4.33333 29.5076 5.82572 31 7.66667 31H24.3333C26.1743 31 27.6667 29.5076 27.6667 27.6667V16" stroke="white" stroke-width="2" stroke-linecap="round" stroke-linejoin="round"/>
</svg>
