<svg width="20" height="16" viewBox="0 0 20 16" fill="none" xmlns="http://www.w3.org/2000/svg">
<path d="M1.97738 2.84C2.0176 2.33881 2.24513 1.87115 2.61465 1.53017C2.98417 1.18918 3.46857 0.999897 3.97138 1H16.0294C16.5322 0.999897 17.0166 1.18918 17.3861 1.53017C17.7556 1.87115 17.9832 2.33881 18.0234 2.84L18.8264 12.84C18.8485 13.1152 18.8133 13.392 18.7232 13.6529C18.6331 13.9139 18.4899 14.1533 18.3027 14.3562C18.1155 14.5592 17.8883 14.7211 17.6354 14.8319C17.3825 14.9427 17.1095 14.9999 16.8334 15H3.16738C2.8913 14.9999 2.61823 14.9427 2.36536 14.8319C2.11249 14.7211 1.88529 14.5592 1.69808 14.3562C1.51086 14.1533 1.36768 13.9139 1.27755 13.6529C1.18742 13.392 1.15229 13.1152 1.17438 12.84L1.97738 2.84V2.84Z" stroke="white" stroke-width="2" stroke-linecap="round" stroke-linejoin="round"/>
</svg>
